#!OML:ASF H:\LiuWeirdWalks\Patient Classification 1\Patient 1\Session 1\male.ASF
:FULLY-SPECIFIED
:DEGREES
475
root 1.95463 17.7308 13.5251 4.8751 1.43126 4.96248
lowerback 4.95225 -11.9601 -10.2088
upperback -2.42687 -16.5573 5.4091
thorax -0.835024 -8.2235 11.5742
lowerneck -14.4807 4.32461 9.44176
upperneck 20.0834 5.34936 -7.4441
head 9.15452 2.427 -3.47399
rclavicle -2.22639e-014 -2.06736e-014
rhumerus -54.6196 -10.2673 -33.7013
rradius 58.8674
rwrist -2.18511
rhand -8.15283 6.3773
rfingers 7.12502
rthumb 17.7618 -22.8315
lclavicle -2.22639e-014 -2.06736e-014
lhumerus -10.0517 -21.8717 92.6058
lradius 52.8392
lwrist 5.44246
lhand -15.1017 -10.4905
lfingers 7.12502
lthumb 11.0666 19.1978
rfemur -35.5485 -1.602 13.7788
rtibia 32.5383
rfoot 3.7013 -9.39027
rtoes -5.28216
lfemur 25.4337 -1.44148 -28.1557
ltibia -6.99722e-014
lfoot 7.57761 13.3831
ltoes -20.3711
476
root 1.94116 17.7463 13.6989 5.00319 1.01749 4.68169
lowerback 4.84431 -11.8558 -9.8808
upperback -2.54821 -16.3859 5.62708
thorax -0.972871 -8.12929 11.6482
lowerneck -14.2413 4.26539 9.31056
upperneck 19.8814 5.32149 -7.49462
head 9.03513 2.40352 -3.47301
rclavicle -1.85466e-013 4.77083e-015
rhumerus -55.3754 -10.4587 -32.8526
rradius 58.7253
rwrist -2.12712
rhand -8.04646 6.41152
rfingers 7.12502
rthumb 17.8641 -22.788
lclavicle -1.85466e-013 4.77083e-015
lhumerus -10.215 -23.358 93.9361
lradius 52.6442
lwrist 5.41929
lhand -15.0307 -10.7387
lfingers 7.12502
lthumb 11.1351 18.9459
rfemur -35.4916 -1.95289 14.4808
rtibia 33.1617
rfoot 3.07602 -8.94388
rtoes -4.02468
lfemur 25.6689 -1.14421 -27.8888
ltibia -1.90833e-014
lfoot 8.7584 12.9767
ltoes -20.2035
477
root 1.92657 17.7632 13.8707 5.1097 0.600743 4.45088
lowerback 4.736 -11.694 -9.59415
upperback -2.69011 -16.141 5.82163
thorax -1.14756 -7.99344 11.7278
lowerneck -13.857 4.1383 9.09021
upperneck 19.6042 5.22427 -7.53148
head 8.85414 2.34549 -3.46155
rclavicle 1.95803e-014 -1.59028e-015
rhumerus -56.2254 -10.6335 -31.9758
rradius 58.6097
rwrist -2.09152
rhand -7.9618 6.46725
rfingers 7.12502
rthumb 17.9456 -22.7248
lclavicle 1.95803e-014 -1.59028e-015
lhumerus -10.5053 -24.9879 95.3878
lradius 52.433
lwrist 5.36814
lhand -14.8881 -11.0302
lfingers 7.12502
lthumb 11.2726 18.6469
rfemur -35.3768 -2.20595 15.0756
rtibia 33.7567
rfoot 2.35368 -8.60491
rtoes -2.7887
lfemur 25.8945 -0.842083 -27.6787
ltibia 9.22361e-014
lfoot 10.001 12.5123
ltoes -20.0385
478
root 1.90966 17.7814 14.0408 5.20853 0.194225 4.24309
lowerback 4.6219 -11.5026 -9.34474
upperback -2.82908 -15.8583 6.00579
thorax -1.3187 -7.83838 11.8156
lowerneck -13.4626 3.97793 8.80516
upperneck 19.3393 5.08834 -7.54168
head 8.67048 2.26772 -3.43469
rclavicle 9.17391e-014 -7.95139e-015
rhumerus -57.0801 -10.8158 -31.1447
rradius 58.5203
rwrist -2.07793
rhand -7.90434 6.51476
rfingers 7.12502
rthumb 18.0009 -22.6722
lclavicle 9.17391e-014 -7.95139e-015
lhumerus -10.8622 -26.6993 96.8765
lradius 52.2126
lwrist 5.2779
lhand -14.6651 -11.3398
lfingers 7.12502
lthumb 11.4877 18.3255
rfemur -35.2141 -2.35881 15.6007
rtibia 34.2786
rfoot 1.62774 -8.36183
rtoes -1.83449
lfemur 26.0926 -0.550225 -27.4897
ltibia -2.22639e-014
lfoot 11.3386 12.0054
ltoes -19.6945
479
root 1.89086 17.8004 14.21 5.29066 -0.173279 4.0644
lowerback 4.51662 -11.3198 -9.14738
upperback -2.94223 -15.5913 6.17734
thorax -1.45298 -7.69426 11.9122
lowerneck -13.1379 3.83291 8.50989
upperneck 19.1239 4.9672 -7.53896
head 8.51839 2.1963 -3.39934
rclavicle 1.03964e-013 -1.59028e-015
rhumerus -57.844 -11.0115 -30.4336
rradius 58.4463
rwrist -2.08839
rhand -7.84995 6.61087
rfingers 7.12502
rthumb 18.0532 -22.5713
lclavicle 1.03964e-013 -1.59028e-015
lhumerus -11.2273 -28.4144 98.3062
lradius 51.9862
lwrist 5.12806
lhand -14.3516 -11.6639
lfingers 7.12502
lthumb 11.7901 17.9843
rfemur -34.9829 -2.45937 16.0588
rtibia 34.7095
rfoot 0.940351 -8.21625
rtoes -1.24242
lfemur 26.2794 -0.295054 -27.3309
ltibia -3.18055e-014
lfoot 12.7573 11.4811
ltoes -19.1775
480
root 1.87056 17.8201 14.3791 5.35602 -0.469176 3.91508
lowerback 4.43991 -11.1838 -9.01128
upperback -3.0227 -15.3933 6.33781
thorax -1.53761 -7.58918 12.0236
lowerneck -12.9157 3.74419 8.27482
upperneck 18.9683 4.90535 -7.54207
head 8.4133 2.15471 -3.36848
rclavicle -8.48811e-014 5.88403e-014
rhumerus -58.4383 -11.1968 -29.9084
rradius 58.382
rwrist -2.1133
rhand -7.75735 6.7615
rfingers 7.12502
rthumb 18.1423 -22.4124
lclavicle -8.48811e-014 5.88403e-014
lhumerus -11.5729 -30.0597 99.5981
lradius 51.7755
lwrist 4.93253
lhand -13.9827 -11.9742
lfingers 7.12502
lthumb 12.1458 17.6532
rfemur -34.6667 -2.55206 16.4594
rtibia 35.0486
rfoot 0.277044 -8.15237
rtoes -0.988349
lfemur 23.9274 -0.0770496 -27.1816
ltibia 4.97421
lfoot 11.9606 11.943
ltoes -18.4892
481
root 1.84878 17.84 14.5479 5.4026 -0.699345 3.7889
lowerback 4.40743 -11.1306 -8.95432
upperback -3.04733 -15.3153 6.47556
thorax -1.54204 -7.55178 12.1433
lowerneck -12.8926 3.76046 8.20111
upperneck 18.95 4.94921 -7.56301
head 8.40527 2.16858 -3.35809
rclavicle 2.06736e-014 1.43125e-014
rhumerus -58.7702 -11.3691 -29.6975
rradius 58.3335
rwrist -2.12621
rhand -7.61333 6.92719
rfingers 7.12502
rthumb 18.2809 -22.2338
lclavicle 2.06736e-014 1.43125e-014
lhumerus -11.8384 -31.5677 100.596
lradius 51.5926
lwrist 4.68608
lhand -13.5915 -12.2507
lfingers 7.12502
lthumb 12.523 17.354
rfemur -34.2728 -2.58489 16.7967
rtibia 35.3167
rfoot -0.367049 -8.2239
rtoes -0.920838
lfemur 22.3477 0.0715335 -27.0678
ltibia 8.4281
lfoot 11.9165 12.1605
ltoes -17.7426
482
root 1.82579 17.8599 14.7166 5.42715 -0.859185 3.66389
lowerback 4.40437 -11.1291 -8.92712
upperback -3.04007 -15.3107 6.59589
thorax -1.5066 -7.55532 12.2558
lowerneck -12.9634 3.83561 8.23391
upperneck 19.0035 5.05123 -7.5973
head 8.44702 2.21409 -3.36321
rclavicle 9.71063e-014 -4.29375e-014
rhumerus -58.9454 -11.507 -29.7145
rradius 58.3109
rwrist -2.1551
rhand -7.4512 7.04941
rfingers 7.12502
rthumb 18.4368 -22.0969
lclavicle 9.71063e-014 -4.29375e-014
lhumerus -12.0745 -32.9918 101.402
lradius 51.4444
lwrist 4.43459
lhand -13.1694 -12.4853
lfingers 7.12502
lthumb 12.9299 17.0942
rfemur -33.802 -2.55859 17.0942
rtibia 35.5304
rfoot -0.98622 -8.43197
rtoes -0.87459
lfemur 21.1595 0.148962 -26.9503
ltibia 11.132
lfoot 12.2798 12.3
ltoes -16.9048
483
root 1.8026 17.8796 14.8843 5.43009 -0.946579 3.55491
lowerback 4.4379 -11.174 -8.9279
upperback -3.03749 -15.3735 6.68685
thorax -1.47945 -7.5914 12.3552
lowerneck -12.9918 3.95108 8.38334
upperneck 19.0831 5.19562 -7.66771
head 8.49804 2.28512 -3.39589
rclavicle 7.66315e-014 -6.36111e-015
rhumerus -59.0263 -11.5628 -29.9228
rradius 58.3191
rwrist -2.15472
rhand -7.25172 7.14142
rfingers 7.12502
rthumb 18.6287 -21.9866
lclavicle 7.66315e-014 -6.36111e-015
lhumerus -12.3739 -34.3088 102.074
lradius 51.3472
lwrist 4.16464
lhand -12.7612 -12.6851
lfingers 7.12502
lthumb 13.3234 16.869
rfemur -33.2678 -2.50357 17.3401
rtibia 35.6998
rfoot -1.58376 -8.73136
rtoes -0.856783
lfemur 20.116 0.228122 -26.8125
ltibia 13.5758
lfoot 12.8055 12.3841
ltoes -16.005
484
root 1.77875 17.8994 15.0504 5.41765 -0.97421 3.42923
lowerback 4.50649 -11.2454 -8.92133
upperback -3.01607 -15.4737 6.76865
thorax -1.44549 -7.64789 12.4434
lowerneck -13.1008 4.10172 8.5967
upperneck 19.2127 5.3767 -7.76269
head 8.58715 2.3738 -3.44292
rclavicle 5.9536e-014 -7.95139e-015
rhumerus -58.9931 -11.5893 -30.3057
rradius 58.3536
rwrist -2.16941
rhand -7.0814 7.15207
rfingers 7.12502
rthumb 18.7925 -21.9602
lclavicle 5.9536e-014 -7.95139e-015
lhumerus -12.6406 -35.5443 102.592
lradius 51.2908
lwrist 3.91236
lhand -12.3554 -12.846
lfingers 7.12502
lthumb 13.7145 16.682
rfemur -32.6811 -2.42068 17.5805
rtibia 35.8218
rfoot -2.15405 -9.09455
rtoes -0.841762
lfemur 19.133 0.328076 -26.611
ltibia 15.9135
lfoot 13.4326 12.4321
ltoes -15.0925
485
root 1.7547 17.9194 15.2146 5.39065 -0.951033 3.27416
lowerback 4.59805 -11.3396 -8.88983
upperback -2.98475 -15.6043 6.83921
thorax -1.4146 -7.72015 12.5083
lowerneck -13.1979 4.28562 8.89948
upperneck 19.3236 5.5965 -7.91457
head 8.67667 2.48191 -3.51938
rclavicle 1.308e-013 3.18055e-015
rhumerus -58.8739 -11.5793 -30.8283
rradius 58.3924
rwrist -2.11977
rhand -6.91438 7.19574
rfingers 7.12502
rthumb 18.9532 -21.9008
lclavicle 1.308e-013 3.18055e-015
lhumerus -12.9215 -36.6758 102.983
lradius 51.2872
lwrist 3.69426
lhand -11.9681 -12.972
lfingers 7.12502
lthumb 14.0878 16.5305
rfemur -32.0489 -2.34059 17.84
rtibia 35.8928
rfoot -2.6947 -9.47491
rtoes -0.828763
lfemur 18.1813 0.452678 -26.3369
ltibia 18.2049
lfoot 14.1264 12.4608
ltoes -14.2083
486
root 1.72973 17.94 15.3766 5.36175 -0.892687 3.07753
lowerback 4.6664 -11.3944 -8.79537
upperback -2.95286 -15.6754 6.9174
thorax -1.40019 -7.76193 12.5489
lowerneck -13.3193 4.42321 9.09698
upperneck 19.4454 5.76792 -8.0389
head 8.76671 2.56165 -3.57434
rclavicle 3.95581e-014 3.18055e-015
rhumerus -58.7854 -11.5883 -31.3386
rradius 58.4477
rwrist -2.05298
rhand -6.76989 7.21443
rfingers 7.12502
rthumb 19.0921 -21.8685
lclavicle 3.95581e-014 3.18055e-015
lhumerus -13.2343 -37.7962 103.398
lradius 51.3242
lwrist 3.49457
lhand -11.5923 -13.0831
lfingers 7.12502
lthumb 14.4498 16.3938
rfemur -31.3876 -2.25945 18.1415
rtibia 35.9036
rfoot -3.19661 -9.85985
rtoes -0.824235
lfemur 17.2275 0.615036 -25.9726
ltibia 20.4758
lfoot 14.8536 12.4723
ltoes -13.3259
487
root 1.70452 17.9607 15.5357 5.33301 -0.811731 2.84353
lowerback 4.71478 -11.4122 -8.63821
upperback -2.92551 -15.6903 6.99555
thorax -1.41112 -7.77369 12.5585
lowerneck -13.4467 4.52114 9.20187
upperneck 19.587 5.89761 -8.12727
head 8.85714 2.61819 -3.60665
rclavicle 5.06901e-014 -3.97569e-014
rhumerus -58.7311 -11.6103 -31.8404
rradius 58.5127
rwrist -1.95998
rhand -6.63638 7.24221
rfingers 7.12502
rthumb 19.2205 -21.828
lclavicle 5.06901e-014 -3.97569e-014
lhumerus -13.597 -38.8818 103.827
lradius 51.3953
lwrist 3.29729
lhand -11.2584 -13.1924
lfingers 7.12502
lthumb 14.7716 16.2612
rfemur -30.693 -2.19738 18.4838
rtibia 35.8236
rfoot -3.64724 -10.2152
rtoes -0.811919
lfemur 16.2883 0.822803 -25.5303
ltibia 22.6763
lfoot 15.5948 12.4591
ltoes -12.5305
488
root 1.67869 17.9814 15.6933 5.29248 -0.718865 2.58166
lowerback 4.71516 -11.3614 -8.41306
upperback -2.91486 -15.6044 7.06852
thorax -1.45975 -7.73121 12.5274
lowerneck -13.5013 4.53165 9.14094
upperneck 19.7052 5.93331 -8.14965
head 8.90967 2.62649 -3.60077
rclavicle -7.55382e-014 1.59028e-015
rhumerus -58.8009 -11.6419 -32.2387
rradius 58.5881
rwrist -1.85314
rhand -6.4652 7.32075
rfingers 7.12502
rthumb 19.3851 -21.733
lclavicle -7.55382e-014 1.59028e-015
lhumerus -14.0794 -39.9713 104.383
lradius 51.5007
lwrist 3.14943
lhand -10.938 -13.3029
lfingers 7.12502
lthumb 15.0802 16.1278
rfemur -29.9655 -2.1477 18.8573
rtibia 35.6912
rfoot -4.06476 -10.5427
rtoes -0.818209
lfemur 15.3418 1.07635 -25.0242
ltibia 24.8707
lfoot 16.2516 12.4615
ltoes -11.7655
